<svg xmlns="http://www.w3.org/2000/svg" width="186" height="56" viewBox="0 0 186 56" fill="none"><g clip-path="url(#clip0_687_3450)"><path d="M14.2181 4.71954C15.1459 3.75533 16.0738 3.14636 17.2775 2.74038C18.431 2.35977 19.6096 2.2329 20.7632 2.38515C23.8226 2.79113 26.1296 4.84641 26.8569 7.81514C27.0575 8.57636 27.0826 8.93159 27.0826 9.97192C27.0826 10.5301 27.1076 10.9869 27.1076 10.9869C27.1327 10.9869 27.2581 10.9615 27.4086 10.9107C27.6092 10.86 28.0355 10.8346 28.4869 10.8346V5.17627L28.0104 4.54192C26.9321 3.14636 26.0544 2.25828 25.3523 1.82692C23.7724 0.837344 22.0672 0.228373 20.4372 0.050756C19.9607 8.40798e-06 18.6818 8.40798e-06 18.2304 0.050756C16.9765 0.202999 15.5722 0.710475 14.519 1.39557C12.7135 2.58814 11.3593 4.49117 10.5819 6.90169C10.4064 7.43454 10.1807 8.37337 10.1305 8.80472C10.1055 8.98234 10.0553 9.15995 10.0302 9.18533C10.0051 9.2107 9.87976 9.28682 9.7293 9.33757C9.32807 9.48981 8.29991 10.0227 7.84852 10.3018C5.39098 11.8496 3.98667 14.1078 3.58544 17.102C3.46005 18.0915 3.46005 19.3856 3.58544 20.6289L3.61051 20.8827L3.28451 21.1618C1.67958 22.5066 0.676505 23.9275 0.30035 25.4753C0.149889 26.0589 0.124812 27.0992 0.225119 27.759C0.400658 28.8247 0.80189 29.865 1.52912 31.0322L1.80497 31.4635L1.47897 32.0979C0.651428 33.7725 0.174966 35.4218 0.0245036 37.1726C-0.0507274 37.8831 -0.000573423 39.2279 0.0997345 39.9384C0.776813 44.4803 4.11205 48.2102 8.87668 49.7834C9.15253 49.8595 9.5036 49.9864 9.65407 50.0118L9.95499 50.0879L10.1305 50.3924C11.0835 52.0671 12.3122 53.4119 13.7667 54.3761C17.127 56.5582 21.5656 56.5075 25.0012 54.1985C26.3553 53.3104 27.3835 52.2193 28.211 50.8237C28.3615 50.57 28.4117 50.4685 28.4618 50.4685V46.8654C28.4117 46.8654 28.3615 46.8654 28.3113 46.8654C27.8349 46.8654 27.6092 46.8401 27.1578 46.6878C27.1077 46.6624 27.0826 46.6878 27.1076 46.8401C27.1327 47.0938 27.0324 47.8296 26.9321 48.2356C26.8067 48.6416 26.4807 49.3521 26.255 49.6566C26.1798 49.7834 26.1046 49.8595 26.0795 49.8595C26.0795 49.8595 26.0043 49.6058 25.9541 49.3267C25.277 46.0281 23.0953 44.0997 20.1613 44.2266C18.9075 44.2773 17.3778 44.7848 16.8512 45.343C16.3998 45.7997 16.2493 46.4341 16.5001 46.8147C16.6505 47.0431 16.8762 47.1953 17.1521 47.246C17.4781 47.3222 17.7539 47.246 18.2053 46.9923C18.9326 46.5863 19.735 46.3833 20.4622 46.4848C21.8164 46.6371 22.9449 47.4744 23.5216 48.7431C23.7975 49.3267 23.8727 49.6312 23.8476 50.2655C23.8476 50.7476 23.8226 50.8237 23.6972 51.2044C23.0703 53.082 20.9889 54.1477 18.6066 53.8179C17.4029 53.6402 16.149 53.1328 14.9453 52.3208C13.8168 51.5596 12.9893 50.5954 12.4125 49.3774C11.4095 47.2714 11.4345 44.8609 12.4878 42.6788C13.1899 41.1817 14.2682 40.0399 15.6976 39.2787L16.149 39.0249L16.3245 39.2025C16.5502 39.4055 16.8512 39.6085 17.3025 39.8369C17.6536 40.0145 18.1552 40.2429 18.1802 40.2175C18.1802 40.2175 18.0298 39.9384 17.8292 39.5832C16.3998 37.0965 15.8481 34.9144 16.2242 33.0621C16.4499 31.971 16.9264 31.0068 17.7539 30.1441L18.1552 29.7381L17.8041 29.0784L17.453 28.4187L17.0769 28.3172C15.0205 27.7843 13.3905 26.2112 12.6633 24.0036C11.9612 21.8976 12.1618 19.614 13.215 17.5841C13.6413 16.7721 14.1178 16.1124 14.845 15.4019C15.2212 15.0213 15.3716 14.9198 15.6475 14.7676C17.0267 14.1078 18.2053 14.2601 19.1833 15.2243C19.3839 15.4019 19.6096 15.7064 19.735 15.884L19.9356 16.2139L20.0109 16.1124C20.1362 15.9601 20.6127 15.6556 21.1895 15.3765L21.7161 15.1228L21.691 14.9959C21.6158 14.5899 20.9889 13.8541 19.9858 12.9914L19.735 12.7884L20.0861 12.4332C20.8635 11.672 21.3901 10.7331 21.6158 9.66743C21.7161 9.26145 21.7412 8.2465 21.691 7.94201C21.5907 7.40916 21.2396 6.92706 20.8384 6.72407C20.6629 6.62257 20.5626 6.62257 20.3369 6.62257C19.9858 6.62257 19.7852 6.72407 19.5595 6.97781C19.2836 7.28229 19.2586 7.38379 19.2586 8.22112C19.2586 8.80472 19.2335 9.03308 19.1582 9.33757C18.9827 10.0734 18.6818 10.6063 18.2053 11.063C16.6255 12.56 13.7416 12.0779 12.7385 10.1242C12.3122 9.3122 12.2621 8.19575 12.6132 7.13005C12.889 6.41958 13.541 5.43 14.2181 4.71954ZM15.6224 30.271C15.7979 30.3471 15.9484 30.4232 15.9735 30.4232C15.9985 30.4486 15.8732 30.6516 15.6976 30.8799C15.3215 31.3874 14.7949 32.4024 14.6444 32.9606C14.4438 33.6457 14.3936 34.0517 14.3936 34.8129C14.3936 35.6248 14.4688 36.1323 14.6945 36.792C14.7698 37.0458 14.845 37.2488 14.845 37.2488C14.845 37.2488 14.7698 37.2995 14.6695 37.3503C14.2682 37.5532 13.6162 37.9592 13.1899 38.3145C11.2088 39.8115 10.0051 41.8668 9.55376 44.5057C9.45345 45.1146 9.4033 46.8401 9.45345 47.3983C9.47853 47.5759 9.47853 47.7281 9.47853 47.7281C9.45345 47.7535 8.7513 47.5505 8.37514 47.3983C6.3439 46.6371 4.61359 44.937 3.5102 42.6534C3.00867 41.5877 2.70774 40.6742 2.50713 39.5578C2.38174 38.8219 2.33159 37.3756 2.43189 36.6652C2.55728 35.7263 2.8582 34.7368 3.23436 34.0517C3.43497 33.6964 3.83621 33.0621 3.86128 33.0621C3.88636 33.0621 4.0619 33.1382 4.23744 33.2143C4.66375 33.3919 5.19036 33.5442 5.6919 33.6457C6.26867 33.7472 7.37206 33.7472 7.94883 33.6203C8.82653 33.4427 9.67914 33.0875 10.0553 32.7322C10.7324 32.0979 10.5318 31.159 9.65407 30.9053C9.35314 30.8038 9.02714 30.8546 8.65099 31.0068C7.52252 31.4889 5.96775 31.4889 4.78913 30.9814C2.38174 29.9411 1.57928 26.8455 3.15913 24.5365C3.58544 23.9275 4.31267 23.2678 4.98975 22.9379C5.84236 22.5066 6.97083 22.3036 7.69806 22.4558C8.29991 22.5827 8.77637 22.8364 9.30299 23.3439C9.80453 23.826 10.1055 24.2066 11.0082 25.5768C11.4596 26.2365 11.911 26.9216 12.0113 27.0739C13.1147 28.6724 14.3184 29.7127 15.6224 30.271ZM13.1147 13.4481L13.4407 13.6257L13.1398 13.8795C12.237 14.6407 11.4596 15.681 10.8828 16.8736C10.3061 18.0662 9.92991 19.3602 9.85468 20.6797L9.80453 21.0603L9.42837 20.908C8.95191 20.6797 8.27483 20.4767 7.84852 20.3752C7.32191 20.2483 6.31883 20.2737 6.0179 20.4006L5.79221 20.502L5.74206 20.2737C5.19036 17.4318 5.86744 14.9959 7.74822 13.1436C8.57576 12.3317 9.47853 11.7227 10.5819 11.266L10.9079 11.1391L10.9831 11.3675C11.0333 11.4943 11.1336 11.6973 11.2088 11.8242C11.585 12.3824 12.1868 12.9153 13.1147 13.4481Z" fill="#2F3695"></path><path d="M35.9093 29.0782C35.8843 29.0528 35.8843 29.0528 35.8592 29.0274C35.5583 28.8498 34.48 28.7737 33.1258 28.7737C33.1007 28.9006 33.1007 29.0274 33.1007 29.0528C33.1007 29.0782 33.0255 28.9767 32.9503 28.8498L32.9001 28.7737C29.5398 28.7737 24.6247 29.1035 24.6247 29.1035L26.5556 30.0424C26.7061 30.1185 26.8064 30.2707 26.8064 30.4484C26.8064 31.7932 26.8064 37.4515 26.7312 37.4515C26.5807 37.4515 25.8535 37.2232 25.5526 37.0709C24.2736 36.4619 23.5715 35.447 23.3709 33.8738C23.3458 33.5947 23.2956 33.3663 23.2705 33.3663C23.2455 33.341 22.443 33.341 21.465 33.341H19.6845L19.6595 33.6962C19.6344 34.1783 19.7598 35.0156 19.9102 35.5992C20.4118 37.5784 21.7409 39.1262 23.747 40.1158C24.4241 40.4456 25.1513 40.674 26.0039 40.8516C26.3801 40.9277 26.7312 41.0039 26.7562 41.0292C26.7813 41.0546 26.8064 41.4606 26.8064 42.3994C26.8064 43.6681 26.8064 43.7442 26.8816 43.7696C26.9569 43.8204 30.0915 43.8204 30.1918 43.795C30.242 43.7696 30.242 43.4651 30.242 42.4502C30.242 41.4352 30.267 41.1054 30.2921 41.08C30.3172 41.0546 30.593 41.0039 30.919 40.9531C33.502 40.5218 35.5583 39.1008 36.5363 37.1217C36.9877 36.1828 37.414 34.6097 37.414 32.8842C37.3638 31.2349 36.8121 30.1439 35.9093 29.0782ZM30.7435 37.4008C30.2921 37.5276 30.242 37.5276 30.2169 37.4515C30.1918 37.4008 30.1918 36.1067 30.1918 34.5335C30.1918 31.9454 30.1918 31.6917 30.267 31.6663C30.4175 31.6155 31.4958 31.9962 32.1729 32.326C32.6243 32.5544 33.0255 32.9096 33.201 33.2141C33.3766 33.5186 33.4769 34.0261 33.4769 34.4067C33.4769 35.853 32.4989 36.9187 30.7435 37.4008Z" fill="#69BD45"></path><path d="M26.7059 41.1055C26.7812 41.1563 26.7812 41.2831 26.7812 42.5265L26.8062 43.8966H28.5115H30.2167L30.2418 42.5518L30.2669 41.207L29.991 41.1816C29.8405 41.1563 29.1885 41.1563 28.5115 41.1309C27.8595 41.1055 27.1573 41.1055 26.9818 41.0801C26.6808 41.0548 26.6558 41.0548 26.7059 41.1055Z" fill="#B22335"></path><path d="M56.6983 35.4978C56.4475 34.3814 56.0463 33.265 55.4946 32.1231L55.1686 31.4634L55.3943 31.1336C56.0463 30.1186 56.4976 29.0529 56.7233 28.0126C56.8487 27.3782 56.8487 26.3125 56.7233 25.6782C56.4976 24.6379 56.0463 23.699 55.2939 22.7602C54.9429 22.3288 54.2156 21.593 53.7392 21.187C53.3881 20.9079 53.363 20.8825 53.3881 20.7557C53.5386 19.9437 53.5135 17.7362 53.363 16.8227C53.1373 15.4018 52.6609 14.1331 52.0089 13.0928C50.9556 11.4689 49.3256 10.1748 47.2693 9.33745L46.9684 9.21058L46.9182 8.93147C46.5672 7.15531 46.2412 6.1911 45.6644 4.99853C44.2099 2.10592 41.7022 0.329752 38.6428 -0.000107445C37.5896 -0.101603 36.2104 -0.000107434 35.107 0.279004C33.828 0.608864 32.1479 1.39545 31.195 2.10592C30.7185 2.46115 29.6903 3.5776 28.8628 4.69405L28.5117 5.15077V10.7838C28.8628 10.7838 29.1888 10.8091 29.4396 10.8599C29.6402 10.9106 29.8408 10.936 29.8659 10.936C29.891 10.936 29.891 10.7076 29.891 10.3778C29.7656 7.8404 30.7185 5.45526 32.3987 4.03433C33.828 2.81639 35.5584 2.23279 37.4642 2.28354C38.6679 2.33428 39.6961 2.58802 40.7493 3.12087C42.2038 3.85671 43.3071 4.99853 44.1096 6.52096C44.4607 7.18068 44.6613 8.14489 44.5861 8.8046C44.4356 10.4793 43.2319 11.6718 41.4765 11.8748C39.8967 12.0525 38.4924 11.2151 37.9657 9.76881C37.8153 9.33745 37.7401 8.82998 37.7401 8.14488C37.7401 7.48517 37.715 7.33292 37.5394 7.05381C37.389 6.82545 37.063 6.62246 36.7871 6.57171C36.2104 6.47021 35.5584 6.97769 35.3327 7.71353C35.2574 7.96727 35.2324 8.09414 35.2324 8.57624C35.2574 10.0479 35.759 11.2659 36.7871 12.3062L37.2134 12.7375L37.0128 12.8898C36.2605 13.5241 35.5834 14.2346 35.3577 14.666C35.1571 15.0212 35.1822 15.0466 35.6336 15.2749C36.1853 15.5287 36.6868 15.8331 36.8624 16.0108C36.9376 16.0869 37.0128 16.163 37.0128 16.1376C37.063 16.0108 37.3639 15.6048 37.5394 15.4018C37.9156 14.9451 38.5425 14.5391 39.0942 14.4122C39.4202 14.3361 40.0973 14.3361 40.4734 14.463C40.8245 14.5645 41.2759 14.7674 41.6019 14.9958C42.0784 15.3257 42.8558 16.2138 43.3322 16.9496C45.3384 20.0959 45.0625 24.2826 42.6551 26.7185C41.8778 27.5051 41.0001 28.038 39.9218 28.3171L39.4954 28.4439L39.1444 29.1036L38.7933 29.7634L39.1444 30.144C39.9468 31.0067 40.4484 31.9455 40.6991 32.9858C40.8245 33.5187 40.8496 34.6098 40.7744 35.2441C40.5738 36.6904 39.9719 38.2382 38.9939 39.8114C38.8434 40.0651 38.7431 40.2428 38.7431 40.2428C38.7431 40.2428 38.9688 40.1413 39.2196 40.0398C39.8214 39.786 40.2728 39.5069 40.5487 39.2532L40.7744 39.0502L41.1254 39.2278C43.7836 40.5726 45.4387 43.5667 45.213 46.6623C45.0625 48.9967 43.8839 51.0266 41.9781 52.3207C40.8998 53.0311 39.7964 53.5386 38.7181 53.767C38.1162 53.8939 36.9125 53.9192 36.3608 53.7924C34.806 53.4625 33.7027 52.549 33.2262 51.2804C33.1008 50.9251 33.1008 50.8744 33.1008 50.24C33.1008 49.6057 33.1008 49.5803 33.2513 49.149C33.6274 48.0833 34.455 47.1698 35.458 46.7638C35.9596 46.5608 36.2856 46.4847 36.8624 46.4847C37.5645 46.4847 37.8905 46.5862 38.6679 46.9668C39.2447 47.2459 39.2697 47.2713 39.5456 47.2713C39.997 47.2713 40.2979 47.0937 40.4985 46.7384C40.6991 46.3578 40.4985 45.7235 40.0722 45.3429C39.6961 44.9877 38.7431 44.5817 37.7651 44.3787C37.1131 44.2264 35.9847 44.2264 35.3828 44.3787C33.7277 44.7593 32.4739 45.7742 31.6714 47.3982C31.4207 47.931 31.1197 48.7937 30.9943 49.4281C30.9442 49.6818 30.894 49.9102 30.869 49.9102C30.8188 49.9102 30.5179 49.4281 30.3423 49.0982C30.0163 48.4639 29.8659 47.7788 29.8659 47.0937C29.8659 46.7638 29.8659 46.7131 29.7906 46.7384C29.5148 46.8146 28.938 46.8907 28.5117 46.9161V50.4938C28.5368 50.4684 28.5619 50.4938 28.587 50.5445C28.612 50.5953 28.7374 50.7983 28.8377 50.9759C30.3423 53.4879 33.0507 55.3402 36.0097 55.8476C38.6428 56.3044 41.2007 55.7715 43.3824 54.2998C44.7365 53.3864 46.0155 51.9655 46.843 50.443L47.0185 50.1132L47.3195 50.037C47.495 49.9863 47.8962 49.8848 48.2222 49.7579C50.429 49.0221 52.3599 47.8041 53.8395 46.2056C56.5227 43.313 57.576 39.4562 56.6983 35.4978ZM44.1096 14.1077L43.583 13.6003L43.7836 13.4988C44.235 13.2704 44.9121 12.7629 45.3133 12.3569C45.6393 12.0271 45.7396 11.8748 45.8901 11.6211C45.9904 11.4435 46.0656 11.2405 46.0907 11.1897L46.1158 11.0882L46.3916 11.1897C46.5421 11.2405 46.8681 11.3927 47.0938 11.5196C48.9495 12.4838 50.3538 14.0062 51.0058 15.7317C51.4822 17.0257 51.5826 18.4974 51.3067 20.0452C51.2816 20.2482 51.2315 20.4258 51.2315 20.4258C51.2315 20.4512 51.1061 20.4004 51.0058 20.3751C50.8553 20.3243 50.6296 20.2736 50.3287 20.2736C49.4761 20.2228 48.5482 20.4766 47.2442 21.0602C47.2192 21.0855 47.1941 20.9333 47.169 20.6034C47.0938 19.4109 46.7427 18.1168 46.1408 16.8988C45.5892 15.7824 45.0124 14.9958 44.1096 14.1077ZM48.147 33.3664C48.8492 33.6202 49.4009 33.6963 50.2033 33.6963C51.1562 33.6963 51.8835 33.5441 52.7361 33.1888C52.9367 33.1127 53.1122 33.0366 53.1373 33.0366C53.1875 33.0366 53.5636 33.6202 53.8144 34.0515C54.1655 34.7113 54.4163 35.5486 54.5918 36.4367C54.6921 37.0457 54.6921 38.5427 54.5918 39.2532C54.2407 41.6129 53.2126 43.719 51.6578 45.3429C50.8302 46.2056 49.8773 46.8653 48.8742 47.2967C48.4228 47.4743 47.6204 47.728 47.5702 47.6773C47.5702 47.6519 47.5702 47.4235 47.5953 47.1191C47.6705 46.4593 47.6204 45.3936 47.495 44.607C47.0687 41.6383 45.5139 39.2785 43.0564 37.7307C42.8558 37.6039 42.5799 37.4263 42.4294 37.3755C42.279 37.2994 42.1787 37.2233 42.1787 37.1979C42.3041 36.8934 42.4796 36.2337 42.5548 35.8277C42.6802 35.1172 42.6551 34.0515 42.4796 33.3918C42.2539 32.4022 41.8025 31.4888 41.1756 30.6768L40.975 30.3977L41.1505 30.3216C41.6019 30.144 42.4044 29.6872 42.7805 29.4081C43.909 28.5454 44.5108 27.835 45.9653 25.6274C47.0687 23.9274 47.5452 23.3692 48.2473 22.9124C48.9244 22.4557 49.7269 22.3035 50.6045 22.4811C51.2816 22.608 52.0089 22.8871 52.7862 23.3184C53.1122 23.496 53.2376 23.5975 53.4633 23.8513C54.5166 25.12 54.9178 26.82 54.5166 28.3171C53.9649 30.3723 52.1092 31.5649 49.8021 31.3365C49.1752 31.2858 48.8492 31.2097 48.3727 31.0067C48.0467 30.8798 47.9464 30.8544 47.6956 30.8544C47.0185 30.8544 46.5922 31.2604 46.5922 31.8694C46.5672 32.5291 47.0436 32.9858 48.147 33.3664Z" fill="#B22335"></path><path d="M37.1143 21.7705C36.6128 19.7914 35.2837 18.2436 33.2775 17.254C32.6004 16.9241 31.8732 16.6958 31.0206 16.5181C30.6444 16.442 30.2934 16.3659 30.2683 16.3405C30.2432 16.3151 30.2181 15.9092 30.2181 14.9703C30.2181 13.7016 30.2181 13.6255 30.1429 13.6001C30.0677 13.5494 26.933 13.5494 26.8327 13.5748C26.7826 13.6001 26.7826 13.9046 26.7826 14.9196C26.7826 15.9345 26.7575 16.2644 26.7324 16.2898C26.7073 16.3151 26.4315 16.3659 26.1055 16.4166C23.5226 16.848 21.4663 18.2689 20.4883 20.2481C20.0369 21.1869 19.8613 21.9481 19.8613 23.1153C19.8613 24.7646 20.2124 25.8557 21.1152 26.9214C21.717 27.6319 22.8956 28.4185 24.1495 28.9006L24.5758 29.0782H30.2181L35.8604 29.0528L35.8103 29.002L35.5595 28.7991C34.5063 27.9617 33.3026 27.4289 31.1209 26.8706C30.6946 26.7438 30.2934 26.6423 30.2683 26.6169C30.193 26.5408 30.168 19.9182 30.2683 19.9182C30.4187 19.9182 31.146 20.1466 31.4469 20.2988C32.7258 20.9078 33.428 21.9228 33.6286 23.4959C33.6537 23.775 33.7038 24.0034 33.7289 24.0034C33.754 24.0288 34.5564 24.0288 35.5344 24.0288H37.3149L37.34 23.6735C37.3651 23.1914 37.2648 22.3541 37.1143 21.7705ZM34.2806 18.6749L34.3809 18.7003C34.4311 18.7257 34.5063 18.751 34.5564 18.751C34.6066 18.7764 34.6568 18.751 34.7069 18.6749C34.8323 18.5227 34.8574 18.548 34.8323 18.7257C34.8072 18.8779 34.8072 18.8779 34.9577 18.954C35.0831 19.0048 35.1081 19.0301 35.058 19.0555C35.0329 19.0809 34.9577 19.1063 34.9075 19.1063C34.8323 19.1063 34.8072 19.1316 34.7821 19.2839C34.7571 19.4361 34.7571 19.4615 34.6818 19.3854C34.6568 19.3346 34.6066 19.2839 34.5815 19.2585C34.5564 19.2078 34.5063 19.2078 34.406 19.2331C34.2304 19.2839 34.2054 19.2585 34.3558 19.1063L34.4561 19.0048L34.2806 18.6749ZM29.4909 28.317L29.3154 28.3677C29.1649 28.4185 29.1398 28.4438 29.1147 28.5961L29.0897 28.7737L29.0144 28.6214C28.9392 28.4946 28.9141 28.4692 28.7637 28.5199L28.5881 28.5453L28.6884 28.4438C28.7887 28.317 28.8138 28.2662 28.7135 28.1393C28.6383 28.0125 28.6634 28.0125 28.8389 28.0886C28.9392 28.1393 28.9643 28.1393 29.0395 28.0125C29.1649 27.8602 29.19 27.8602 29.1649 28.0632C29.1398 28.2155 29.1649 28.2155 29.3154 28.2916L29.4909 28.317ZM28.8138 26.7945L28.7887 27.0229C28.7637 27.1498 28.7637 27.2766 28.7386 27.302C28.7386 27.3274 28.6634 27.2259 28.5881 27.099L28.4377 26.8706L28.212 26.9214C28.0866 26.9468 27.9612 26.9721 27.9361 26.9721C27.911 26.9721 27.9863 26.8706 28.0866 26.7692L28.2621 26.5662L28.1367 26.3378C28.0615 26.2109 28.0114 26.1094 28.0114 26.1094C28.0114 26.1094 28.1367 26.1348 28.2621 26.1856L28.5129 26.2871L28.6634 26.0841C28.7386 25.9826 28.8389 25.9064 28.8389 25.9064C28.864 25.9064 28.864 26.0333 28.864 26.1602L28.8389 26.4139L29.0897 26.5408L29.3404 26.6423L28.8138 26.7945ZM29.0395 19.1824L28.7887 19.3093L28.8138 19.5884L28.8389 19.8675L28.4627 19.4615L28.237 19.563C28.1117 19.6137 27.9863 19.6645 27.9863 19.6645C27.9612 19.6645 28.0364 19.563 28.0866 19.4361L28.212 19.2078L28.0114 19.0048C27.886 18.8779 27.8358 18.8018 27.8609 18.8018C27.911 18.8272 28.0364 18.8272 28.1618 18.8525L28.3875 18.8779L28.4878 18.6495C28.538 18.5227 28.6132 18.4212 28.6132 18.4212C28.6132 18.4212 28.6634 18.548 28.6634 18.6749C28.6884 18.954 28.6634 18.9286 29.0897 19.0048L29.2652 19.0301L29.0395 19.1824ZM27.9612 16.8734C27.886 16.7465 27.8358 16.645 27.8358 16.645C27.8358 16.645 27.9612 16.6704 28.0866 16.7465L28.3123 16.848L28.4878 16.645C28.5881 16.5435 28.6634 16.442 28.6884 16.442C28.7135 16.442 28.7135 16.5689 28.7135 16.7211L28.6884 17.0002L28.9141 17.0764C29.0395 17.1271 29.1398 17.1779 29.1398 17.1779C29.1398 17.2032 29.0395 17.2286 28.9141 17.254L28.6634 17.3047L28.6383 17.5585C28.6132 17.6853 28.6132 17.8122 28.5881 17.8376C28.5881 17.8629 28.5129 17.7868 28.4377 17.66C28.2872 17.4062 28.3123 17.4316 27.886 17.5077L27.7355 17.5331L27.8609 17.3808C28.1117 17.1017 28.1117 17.1017 27.9612 16.8734ZM26.8077 27.6319L26.9581 27.4289C27.0584 27.3274 27.1337 27.2259 27.1337 27.2259C27.1587 27.2259 27.1587 27.3528 27.1337 27.505L27.1086 27.7587L27.3593 27.8602C27.6352 27.9617 27.6352 27.9617 27.234 28.0632L27.0584 28.114V28.3423C27.0584 28.4692 27.0333 28.5707 27.0333 28.5961C27.0083 28.6214 26.933 28.5199 26.8829 28.3931C26.7575 28.1901 26.7575 28.1901 26.6321 28.2155C26.5569 28.2408 26.4315 28.2662 26.3563 28.2662L26.2058 28.2916L26.3061 28.1647C26.582 27.8602 26.5569 27.8856 26.4315 27.6572C26.3563 27.5557 26.3061 27.4542 26.3312 27.4289C26.3312 27.4035 26.4566 27.4542 26.582 27.505L26.8077 27.6319ZM25.3532 17.1017C25.278 16.9749 25.2278 16.8734 25.2529 16.8734C25.278 16.8734 25.3783 16.9241 25.5037 16.9749L25.7293 17.0764L25.9049 16.8734C26.0052 16.7719 26.0804 16.6704 26.1055 16.6704C26.1055 16.6704 26.1055 16.7972 26.1055 16.9495L26.0804 17.2286L26.3312 17.3301C26.582 17.4316 26.582 17.4823 26.3061 17.5077C26.0804 17.5585 26.0303 17.6346 26.0303 17.8629C26.0303 17.9898 26.0052 18.0659 26.0052 18.0659C25.9801 18.0659 25.9049 17.9644 25.8547 17.8629C25.7795 17.7361 25.7293 17.66 25.7043 17.66C25.6792 17.66 25.5789 17.6853 25.4535 17.7361C25.3281 17.7615 25.2278 17.7868 25.2027 17.7868C25.2027 17.7868 25.278 17.6853 25.3532 17.5838L25.5287 17.3808L25.3532 17.1017ZM24.8015 19.157C24.7263 19.0555 24.6761 18.954 24.6761 18.9286C24.6761 18.9033 24.7764 18.954 24.9269 19.0301L25.1777 19.1316L25.3532 18.954C25.4535 18.8525 25.5287 18.751 25.5538 18.751C25.5789 18.751 25.5789 18.8779 25.5538 19.0048L25.5287 19.2839L25.7795 19.3854L26.0303 19.4869L25.5287 19.6137L25.4535 20.1466L25.303 19.9182C25.1526 19.6899 25.1526 19.6645 24.9018 19.7406C24.651 19.8167 24.626 19.766 24.8015 19.5884C24.8767 19.4869 24.952 19.4107 24.952 19.3854C24.9269 19.3854 24.8767 19.2839 24.8015 19.157ZM26.2309 19.9943C26.6823 19.8675 26.7324 19.8675 26.7575 19.9436C26.7826 19.9943 26.7826 21.2884 26.7826 22.8616C26.7826 25.4497 26.7826 25.7035 26.7073 25.7288C26.5569 25.7796 25.4786 25.399 24.8015 25.0691C24.3501 24.8407 23.9489 24.4855 23.7733 24.181C23.5978 23.8765 23.4975 23.3691 23.4975 22.9885C23.5226 21.5421 24.4755 20.4764 26.2309 19.9943ZM25.278 26.6169C25.2278 26.5408 25.2027 26.4647 25.2027 26.4647C25.2027 26.4647 25.278 26.49 25.3532 26.5154C25.5037 26.5915 25.5037 26.5915 25.604 26.4647C25.7293 26.3124 25.7544 26.3124 25.7293 26.49C25.7043 26.6423 25.7043 26.6423 25.8547 26.7184L26.0052 26.7945L25.8547 26.8453C25.7043 26.8707 25.7043 26.896 25.6792 27.0483L25.6541 27.2259L25.5538 27.099C25.4786 26.9721 25.4535 26.9721 25.303 26.9975L25.1275 27.0229L25.2529 26.896L25.3783 26.7692L25.278 26.6169ZM23.8736 20.375L23.8987 20.5526C23.9238 20.7048 23.9238 20.7302 24.0492 20.7809L24.1746 20.8317L24.0241 20.8824C23.8736 20.9332 23.8736 20.9332 23.8736 21.06C23.8736 21.263 23.8235 21.263 23.7483 21.1108C23.673 20.9839 23.648 20.9839 23.5226 21.0093C23.347 21.0347 23.347 21.0093 23.4473 20.8824L23.5476 20.7809L23.4473 20.6287L23.322 20.4764L23.4975 20.5526C23.673 20.6287 23.673 20.6287 23.7733 20.5018L23.8736 20.375ZM23.0461 18.3958C22.9458 18.2182 22.9458 18.2182 23.1213 18.2689C23.2718 18.345 23.2718 18.345 23.3721 18.1928L23.4724 18.0659L23.4975 18.2436C23.5226 18.3958 23.5226 18.4212 23.648 18.4719C23.7984 18.5227 23.7984 18.5734 23.6229 18.5988C23.4724 18.6242 23.4724 18.6495 23.4724 18.8018L23.3972 19.0301L23.322 18.8525C23.2216 18.7003 23.2216 18.7003 23.0963 18.7257C22.8956 18.7764 22.8706 18.7764 22.996 18.6242C23.0963 18.5227 23.0963 18.5227 23.0461 18.3958ZM21.4412 19.969C21.3659 19.8421 21.3158 19.7152 21.3158 19.7152C21.3158 19.7152 21.4412 19.766 21.5666 19.8167L21.7923 19.9182L21.9678 19.7152C22.0681 19.6137 22.1433 19.5122 22.1684 19.5122C22.1935 19.5122 22.1935 19.6391 22.1684 19.766L22.1433 20.0197L22.3941 20.1466L22.67 20.2735L22.3941 20.3496L22.1183 20.4257L22.0932 20.6541C22.0681 20.7809 22.0681 20.9078 22.043 20.9078C22.018 20.9332 21.9678 20.8317 21.8926 20.7048C21.7672 20.5018 21.7672 20.4764 21.5916 20.5272C21.4913 20.5526 21.3659 20.5779 21.3158 20.5779L21.2155 20.6033L21.2907 20.5018C21.3409 20.4511 21.4161 20.3496 21.4663 20.2988L21.5666 20.1973L21.4412 19.969ZM20.6387 22.6586L20.7641 22.5317L20.6638 22.3795L20.5635 22.2272L20.739 22.3034L20.9146 22.3795L21.0149 22.2526C21.065 22.1765 21.1152 22.1257 21.1403 22.1257C21.1403 22.1257 21.1403 22.2019 21.1403 22.3034C21.1152 22.481 21.1152 22.481 21.2656 22.5571L21.4161 22.6332L21.2656 22.684C21.1152 22.7347 21.1152 22.7347 21.0901 22.9123L21.065 23.09L20.9647 22.9377C20.8895 22.8108 20.8644 22.7855 20.7139 22.8108L20.5384 22.8362L20.6387 22.6586ZM21.3659 25.3482L21.3409 25.6273L21.1904 25.399C21.1152 25.2721 21.0399 25.1706 21.0399 25.1452C21.0399 25.1452 20.9396 25.1706 20.8143 25.196C20.6889 25.2214 20.5635 25.2721 20.5384 25.2721C20.5133 25.2721 20.5886 25.1706 20.6889 25.0691L20.8644 24.8661L20.739 24.6124C20.6638 24.4855 20.6136 24.384 20.6136 24.384C20.6136 24.384 20.739 24.4094 20.8644 24.4601L21.0901 24.5616L21.2656 24.3586C21.4412 24.1303 21.4663 24.1557 21.4412 24.5109L21.4161 24.6885L21.6669 24.79L21.9176 24.9169L21.6669 24.9676C21.5164 24.993 21.4161 25.0437 21.391 25.0437C21.4161 25.0691 21.391 25.196 21.3659 25.3482ZM22.3941 26.9214C22.2687 26.9468 22.2687 26.9721 22.2436 27.1244L22.2186 27.302L22.1183 27.1498C22.0681 27.0736 21.9929 26.9975 21.9678 26.9975C21.9427 26.9975 21.8675 27.0229 21.7923 27.0483L21.6669 27.0736L21.7923 26.9468C21.9176 26.7945 21.9427 26.7945 21.8173 26.6423C21.717 26.5154 21.7672 26.49 21.9427 26.5915C22.0681 26.6423 22.0681 26.6423 22.1684 26.5154L22.2687 26.3885L22.2938 26.5662C22.3189 26.7184 22.3189 26.7692 22.4443 26.7945C22.5696 26.8199 22.5446 26.8706 22.3941 26.9214ZM22.7703 23.0138L22.7452 23.2929L22.5947 23.0646C22.5195 22.9377 22.4443 22.8362 22.4192 22.8362C22.3941 22.8362 22.2938 22.8616 22.1684 22.9123C22.043 22.9377 21.9176 22.9885 21.9176 22.9885C21.9176 22.9885 21.9929 22.887 22.0681 22.7855C22.1684 22.6586 22.2436 22.5571 22.2436 22.5571C22.2436 22.5317 22.1935 22.4302 22.1183 22.3287C22.043 22.2019 22.018 22.1257 22.018 22.1257C22.043 22.1257 22.1433 22.1765 22.2687 22.2272L22.4944 22.3287L22.67 22.1257C22.7703 22.0243 22.8455 21.9228 22.8455 21.9228C22.8706 21.9228 22.8455 22.0496 22.8455 22.2019L22.8204 22.3795L23.0712 22.481C23.347 22.5825 23.322 22.6078 22.9709 22.684L22.7953 22.7347L22.7703 23.0138ZM23.021 24.6631L23.1213 24.5616L23.021 24.4094C22.9709 24.3333 22.9458 24.2571 22.9458 24.2571C22.9458 24.2571 23.021 24.2825 23.0963 24.3333C23.2467 24.384 23.2467 24.384 23.347 24.2825L23.4473 24.181L23.4724 24.3333C23.4975 24.4601 23.4975 24.5109 23.648 24.5616L23.7984 24.6378L23.6229 24.6885C23.4473 24.7393 23.4473 24.7392 23.4223 24.9169L23.3972 25.0945L23.322 24.9169C23.2467 24.79 23.2216 24.7646 23.0712 24.79C22.8956 24.8154 22.8956 24.79 23.021 24.6631ZM23.8486 27.0229C23.8235 27.0229 23.7733 26.9214 23.6981 26.7945L23.5727 26.5662L23.3972 26.5915C23.2969 26.6169 23.1715 26.6423 23.1213 26.6423L23.021 26.6677L23.0963 26.5662C23.1464 26.5154 23.2216 26.4139 23.2718 26.3378L23.3721 26.2363L23.2216 25.9826C23.1464 25.8557 23.0963 25.7542 23.1213 25.7542C23.1464 25.7796 23.2718 25.8049 23.3972 25.8557L23.6229 25.9572L23.7733 25.7542C23.8486 25.6527 23.9489 25.5766 23.9489 25.5766C23.974 25.5766 23.974 25.7035 23.9489 25.8303L23.9238 26.0841L24.0743 26.1602C24.1746 26.1856 24.2749 26.2363 24.325 26.2617C24.4253 26.3124 24.4003 26.3124 24.1495 26.3632L23.8736 26.4393L23.8486 26.693C23.8987 26.9214 23.8736 27.0229 23.8486 27.0229ZM24.5758 28.5961C24.4504 28.3677 24.4253 28.3677 24.3 28.3931C24.2247 28.4185 24.0993 28.4438 24.0241 28.4438L23.8736 28.4692L24.0492 28.2662C24.1495 28.1647 24.2247 28.0632 24.2247 28.0378C24.2247 28.0378 24.1746 27.911 24.0993 27.8095C24.0241 27.6826 23.974 27.5811 23.974 27.5811C23.974 27.5557 24.0743 27.6065 24.2247 27.6572L24.4755 27.7587L24.651 27.5557L24.8266 27.3528L24.8516 27.6319L24.8767 27.911L25.3532 28.114L25.1024 28.1647C24.977 28.1901 24.8517 28.2408 24.8266 28.2662C24.8015 28.2916 24.7764 28.4185 24.7764 28.5453L24.7513 28.7737L24.5758 28.5961ZM32.45 28.0886C32.3747 27.9617 32.3246 27.8602 32.3246 27.8602C32.3246 27.8602 32.45 27.8856 32.5754 27.9617L32.8011 28.0632L32.9515 27.8856C33.0267 27.7841 33.1271 27.6826 33.1271 27.6826C33.1521 27.6826 33.1521 27.8095 33.1521 27.9363L33.1271 28.1901L33.3778 28.317L33.6286 28.4185L33.102 28.5453L33.0769 28.7737C33.0518 28.9006 33.0518 29.0274 33.0518 29.0528C33.0518 29.0782 32.9766 28.9767 32.9014 28.8498L32.8512 28.7737L32.7509 28.6214L32.5252 28.6722C32.3998 28.6976 32.2744 28.7229 32.2494 28.7229C32.2243 28.7229 32.2995 28.6214 32.3998 28.5199L32.5754 28.317L32.45 28.0886ZM30.2683 27.2259C30.4438 27.3274 30.494 27.302 30.6695 27.099C30.7698 26.9975 30.8451 26.9214 30.8451 26.896C30.8451 26.896 30.8451 27.0229 30.8451 27.1751L30.82 27.4542L31.0457 27.5557C31.1711 27.6065 31.2714 27.6572 31.2714 27.6826C31.2714 27.708 31.146 27.7334 31.0206 27.7587L30.7698 27.8095V27.9871C30.7698 28.0886 30.7447 28.2155 30.7447 28.2662C30.7197 28.3423 30.6946 28.3423 30.5692 28.1393L30.4187 27.911L30.168 27.9617C30.0426 27.9871 29.9172 28.0125 29.9172 28.0125C29.9172 28.0125 29.9674 27.911 30.0426 27.8349C30.1178 27.7334 30.193 27.6319 30.193 27.6065C30.193 27.5811 30.1429 27.4542 30.0677 27.3528C29.9423 27.1498 29.9423 27.1498 30.0426 27.1751C30.1178 27.1498 30.2181 27.2005 30.2683 27.2259ZM30.4187 18.1167C30.2432 18.1421 30.2432 18.1674 30.2432 18.3197C30.2432 18.5227 30.193 18.5227 30.1178 18.345C30.0426 18.2182 30.0175 18.2182 29.8921 18.2436C29.7166 18.2689 29.7166 18.2436 29.867 18.0913C29.9172 18.0152 29.9172 18.0152 29.867 17.9137C29.7667 17.7868 29.8169 17.7361 29.9674 17.8122C30.0677 17.8629 30.0927 17.8629 30.193 17.7615L30.2934 17.66L30.3184 17.8376C30.3435 17.9898 30.3435 18.0152 30.494 18.0659L30.6444 18.1167H30.4187ZM31.5974 19.5884C31.4218 19.6391 31.4218 19.6391 31.4218 19.8167V19.9943L31.3215 19.8421C31.2714 19.766 31.2212 19.6899 31.2212 19.6899C31.2212 19.6899 31.146 19.6899 31.0707 19.7152C30.8952 19.766 30.8701 19.7406 30.9955 19.6137C31.0958 19.5122 31.0958 19.5122 31.0206 19.3854C30.9704 19.3093 30.9454 19.2585 30.9704 19.2331C30.9704 19.2331 31.0457 19.2331 31.1209 19.2839C31.2463 19.3346 31.2714 19.3346 31.3466 19.2078C31.472 19.0555 31.4971 19.0555 31.472 19.2585C31.4469 19.4107 31.472 19.4361 31.6224 19.4869L31.7729 19.563L31.5974 19.5884ZM32.3998 18.1674C32.3998 18.2689 32.3747 18.3958 32.3747 18.4465C32.3497 18.548 32.3246 18.548 32.2243 18.3197C32.0989 18.0913 32.0738 18.0659 31.798 18.1421C31.6977 18.1674 31.5974 18.1674 31.5974 18.1674C31.5723 18.1674 31.6475 18.0659 31.7227 17.9898C31.8983 17.7868 31.8983 17.7615 31.798 17.6092C31.7478 17.5331 31.6977 17.457 31.6726 17.4062L31.6224 17.3047L31.8481 17.4062C31.9735 17.457 32.0989 17.5077 32.124 17.5077C32.1491 17.5077 32.2243 17.4316 32.3246 17.3301C32.3998 17.2286 32.5001 17.1525 32.5001 17.1525C32.5252 17.1525 32.5252 17.254 32.5001 17.4062L32.4751 17.66L32.7258 17.7868L32.9766 17.8883L32.8011 17.9391C32.7007 17.9644 32.6004 17.9898 32.5503 17.9898C32.4249 17.9898 32.4249 18.0152 32.3998 18.1674ZM33.7038 20.4764L33.4531 20.5272L33.428 20.7809C33.4029 20.9078 33.4029 21.0347 33.3778 21.06C33.3778 21.0854 33.3026 21.0093 33.2274 20.8824C33.0769 20.6287 33.102 20.6541 32.6757 20.7302L32.5252 20.7556L32.6506 20.6033C32.9014 20.3242 32.9014 20.3242 32.7509 20.0958C32.6757 19.969 32.6255 19.8675 32.6255 19.8675C32.6255 19.8675 32.7509 19.8929 32.8763 19.969L33.102 20.0705L33.2775 19.8675C33.3778 19.766 33.4531 19.6645 33.4781 19.6645C33.5032 19.6645 33.5032 19.7914 33.5032 19.9436L33.4781 20.2227L33.7038 20.2988C33.8292 20.3496 33.9295 20.4003 33.9295 20.4003C33.9546 20.4257 33.8543 20.4511 33.7038 20.4764ZM34.1051 21.3645C34.0298 21.2377 34.0549 21.2123 34.2304 21.2884C34.3308 21.3392 34.3558 21.3138 34.4311 21.2123L34.5314 21.0854L34.5564 21.263C34.5815 21.4153 34.5815 21.4407 34.732 21.4914L34.8824 21.5421L34.7069 21.5929C34.5564 21.6436 34.5314 21.669 34.5063 21.8213L34.4812 21.9989L34.406 21.8466C34.3308 21.7198 34.3057 21.7198 34.1552 21.7451L33.9797 21.7705L34.08 21.6436C34.1803 21.5168 34.1803 21.4914 34.1051 21.3645ZM35.1081 23.1153L34.8574 23.1661V23.3437C34.8574 23.4452 34.8323 23.5721 34.8323 23.6228C34.8072 23.7243 34.8072 23.6989 34.6818 23.4959C34.5564 23.2676 34.5063 23.2422 34.2304 23.3183C34.1301 23.3437 34.0549 23.3437 34.0549 23.3437C34.0549 23.3183 34.1051 23.2422 34.1803 23.1407C34.2555 23.0392 34.3308 22.9377 34.3308 22.9123C34.3308 22.887 34.2806 22.7855 34.2054 22.6586C34.1301 22.5571 34.08 22.4556 34.08 22.4556C34.08 22.4556 34.2054 22.481 34.3308 22.5571L34.5564 22.6586L34.732 22.4556C34.8323 22.3287 34.9075 22.2526 34.9326 22.2526C34.9326 22.2526 34.9326 22.3795 34.9075 22.5317L34.8824 22.8108L35.1081 22.9123C35.2335 22.9631 35.3338 23.0392 35.3338 23.0392C35.3589 23.0646 35.2335 23.09 35.1081 23.1153ZM35.7351 21.0854C35.71 21.0854 35.6097 21.1108 35.4843 21.1615C35.3589 21.1869 35.2586 21.2123 35.2335 21.2123C35.2335 21.2123 35.3088 21.1108 35.4091 20.9839C35.5344 20.8317 35.5846 20.7556 35.5344 20.7048C35.5094 20.6541 35.4592 20.5526 35.384 20.4764C35.3338 20.4003 35.3088 20.3242 35.3088 20.3242C35.3338 20.3242 35.4341 20.375 35.5595 20.4257L35.7852 20.5272L35.9608 20.3242C36.0611 20.2227 36.1363 20.1212 36.1363 20.1212C36.1363 20.1212 36.1363 20.2481 36.1363 20.4003L36.1112 20.6794L36.3369 20.7809C36.4623 20.8317 36.5626 20.9078 36.5626 20.9078C36.5375 20.9332 36.4623 20.9586 36.362 20.9586C36.2617 20.9839 36.1614 21.0093 36.1363 21.0093C36.1112 21.0347 36.0611 21.1615 36.0611 21.3138L36.036 21.5929L35.8855 21.3392C35.8354 21.1869 35.7601 21.0854 35.7351 21.0854ZM36.6629 22.9123C36.5375 22.9123 36.4623 23.0392 36.4623 23.1914V23.3183L36.362 23.1661C36.2868 23.0392 36.2366 23.0138 36.1865 23.0392C36.1363 23.0646 36.0611 23.0646 36.0109 23.09C35.9357 23.1153 35.9357 23.1153 35.9608 23.0392C35.9858 22.9885 36.036 22.9377 36.0611 22.9123C36.1112 22.8616 36.1112 22.8362 36.036 22.7093C35.9608 22.5571 35.9608 22.5571 36.036 22.5825C36.2366 22.6586 36.2868 22.6586 36.3871 22.5571C36.4372 22.5064 36.4874 22.4556 36.5125 22.4556C36.5375 22.4556 36.5125 22.5317 36.4874 22.6332C36.4623 22.7855 36.4623 22.8108 36.6128 22.8616C36.7883 22.8362 36.7883 22.9123 36.6629 22.9123Z" fill="#2F3695"></path><path d="M30.3673 16.3407C30.292 16.2899 30.292 16.1631 30.292 14.9197L30.267 13.5496H28.5617H26.7812V16.2899L27.1072 16.2646C27.2577 16.2899 27.9097 16.2899 28.5868 16.3153C29.2388 16.3407 29.9409 16.3407 30.1165 16.3661C30.3923 16.3914 30.4174 16.3914 30.3673 16.3407Z" fill="#B22335"></path></g><g clip-path="url(#clip1_687_3450)"><path d="M76.7596 16.039C73.835 16.4112 72.2867 18.0955 72.0382 21.2095C71.9618 22.0909 72 23.1289 72.1529 23.9907C72.3823 25.4204 72.9557 26.4388 73.9879 27.2418C74.6187 27.7314 74.9628 27.9273 76.6258 28.7499C77.7918 29.3178 77.8682 29.3766 78.0785 29.5725C78.3461 29.8466 78.4225 30.0621 78.4034 30.5125C78.3652 31.198 78.002 31.4722 77.0272 31.5701C75.7847 31.6877 73.9688 31.1589 72.4779 30.2383C72.3249 30.1404 72.172 30.0621 72.172 30.0621C72.172 30.0621 72.1529 31.2372 72.1529 32.6473V35.2326L72.3823 35.3697C73.6056 36.1139 75.2495 36.5056 77.1227 36.5252C78.2123 36.5252 78.9004 36.4273 79.6459 36.1727C81.1942 35.6439 82.3028 34.4883 82.838 32.8236C83.0865 32.0598 83.1821 31.3351 83.1821 30.2971C83.1821 28.5148 82.9145 27.1635 82.3602 26.2234C81.6911 25.0678 80.7354 24.3824 78.6901 23.5598C77.3139 22.9918 77.008 22.8351 76.8551 22.463C76.7596 22.2672 76.7404 21.9146 76.8169 21.6992C76.8742 21.5425 77.0463 21.3271 77.1801 21.2487C77.333 21.1704 77.8873 21.0529 78.327 21.0137C79.4547 20.9354 80.6781 21.2291 82.0352 21.9342C82.2455 22.0517 82.4366 22.1301 82.4366 22.1301C82.4366 22.1301 82.4557 20.9549 82.4557 19.5056V16.9008L82.0543 16.7441C81.3662 16.4895 80.5252 16.2741 79.5121 16.1174C79.0342 16.039 78.8239 16.0195 78.0594 16.0195C77.4095 15.9999 77.008 15.9999 76.7596 16.039Z" fill="#2F3695"></path><path d="M169.752 16C169.695 16 169.504 16.0392 169.313 16.0588C168.567 16.1371 167.764 16.3721 167.095 16.6659C164.897 17.6647 163.464 19.8387 162.928 23.0115C162.584 25.0092 162.584 27.4378 162.909 29.4159C163.273 31.6094 164.114 33.3917 165.337 34.5864C166.598 35.8007 168.185 36.4274 170.326 36.5253C171.855 36.5841 173.289 36.3295 174.646 35.7028L175.009 35.5265V32.6083V29.6901L174.837 29.788C174.569 29.9643 173.747 30.356 173.403 30.4735C172.62 30.7477 171.912 30.8848 171.071 30.8848C169.905 30.8848 169.122 30.6106 168.453 29.9643C167.707 29.2396 167.382 28.1233 167.382 26.2823C167.382 24.1279 167.822 22.8744 168.854 22.1694C169.408 21.7776 170.077 21.621 170.976 21.621C172.276 21.621 173.461 21.9735 174.722 22.7177L174.932 22.8548V19.9562L174.913 17.0576L174.608 16.9009C174.149 16.6659 173.442 16.3917 172.945 16.2742C172.18 16.0783 171.855 16.0392 170.765 16.0196C170.288 16 169.81 16 169.752 16Z" fill="#B22335"></path><path d="M137.467 16.2938C137.448 16.3133 137.448 20.7984 137.448 26.2626V36.212H142.877H148.305V33.7638V31.3156H145.209H142.112V30.0622V28.8087H144.807H147.503V26.2626V23.7362H144.807H142.112V22.4631V21.1901H145.209H148.305V18.7419L148.286 16.2938L142.896 16.2742C139.914 16.2742 137.486 16.2938 137.467 16.2938Z" fill="#B22335"></path><path d="M149.491 26.2431V36.212H151.804H154.117V33.4897V30.7673L154.595 30.7869C155.149 30.8065 155.245 30.8457 155.417 31.0807C155.551 31.2765 155.57 31.3157 156.392 33.9401L157.099 36.212L159.526 36.2316C161.82 36.2316 161.954 36.2316 161.935 36.1728C161.572 34.9586 160.31 30.8457 160.253 30.689C160.157 30.3756 159.928 29.9251 159.775 29.7293L159.66 29.553L160.004 29.2005C161.572 27.6141 162.279 25.4401 162.107 22.7569C161.973 20.6026 161.457 19.0162 160.52 17.8606C159.851 17.038 159.068 16.568 157.978 16.3526C157.711 16.2938 157.252 16.2938 153.601 16.2742L149.51 16.2546V26.2431H149.491ZM156.468 21.5427C156.908 21.7189 157.214 22.1498 157.328 22.7569C157.405 23.1486 157.405 23.9908 157.328 24.3629C157.214 24.9113 156.965 25.2834 156.602 25.4793C156.277 25.636 156.105 25.6556 155.073 25.6556H154.136V23.5599C154.136 22.424 154.155 21.4643 154.155 21.4643C154.174 21.4447 154.652 21.4447 155.226 21.4447C156.2 21.4643 156.277 21.4643 156.468 21.5427Z" fill="#B22335"></path><path d="M127.528 17.8801L125.273 18.5852L125.254 20.0541V21.523H124.623H123.992V23.9711V26.4193H124.623H125.254L125.273 29.1416C125.292 31.4723 125.292 31.9227 125.349 32.2753C125.56 33.705 125.98 34.7626 126.611 35.4677C127.356 36.2903 128.522 36.6428 130.032 36.5057C130.835 36.4274 131.447 36.2707 132.039 35.9769L132.364 35.8006L132.384 33.6462C132.384 31.6094 132.384 31.4919 132.326 31.531C132.078 31.6486 131.657 31.7661 131.39 31.7856C130.663 31.864 130.262 31.6681 130.032 31.0806C129.956 30.8847 129.956 30.8847 129.937 28.652L129.918 26.4193H130.969H132.02V26.0472C132.02 25.8513 132.039 24.8721 132.078 23.9124C132.097 22.9331 132.135 22.0126 132.135 21.8363V21.5426H131.026H129.918V19.3686C129.918 17.2926 129.918 17.175 129.86 17.175C129.822 17.175 128.771 17.4884 127.528 17.8801Z" fill="#2F3695"></path><path d="M91.6118 21.2683C90.7899 21.3663 89.9679 21.7188 89.2033 22.3259L88.8784 22.5805L88.8402 22.1693C88.821 21.9538 88.7828 21.7188 88.7828 21.66L88.7637 21.5425H86.6229H84.4629V28.887V36.2315H86.6993H88.9357V31.5898V26.9676L89.1078 26.7522C89.2989 26.5172 89.5856 26.2822 89.7768 26.2234C90.0826 26.1255 90.484 26.2234 90.6178 26.4388C90.7899 26.7326 90.7899 26.6934 90.7899 31.6289V36.2315H92.9498H95.1098V31.4918V26.7522L95.2245 26.6151C95.4538 26.3409 95.7406 26.1842 96.0846 26.1842C96.5434 26.1842 96.7727 26.3409 96.9066 26.7718L96.983 27.0264L97.0021 31.6289L97.0212 36.2315H99.2959H101.571L101.551 30.8847C101.532 25.1462 101.532 25.2833 101.36 24.3236C100.997 22.561 100.233 21.6013 98.8945 21.3075C98.5122 21.2292 97.6329 21.2292 97.155 21.3075C96.314 21.4642 95.5303 21.8559 94.8039 22.4826C94.651 22.6001 94.5363 22.6981 94.5363 22.6981C94.5363 22.6981 94.4599 22.5805 94.3834 22.463C94.307 22.3259 94.1349 22.1105 94.0011 21.9538C93.6953 21.6404 93.4086 21.4642 93.0072 21.3467C92.6631 21.2487 92.0132 21.2096 91.6118 21.2683Z" fill="#2F3695"></path><path d="M107.458 21.2685C106.273 21.3468 104.935 21.6994 104.056 22.1302L103.692 22.3065V24.1867C103.692 25.9689 103.692 26.0669 103.75 26.0473C105.183 25.4206 107.133 25.1268 108.242 25.401C108.892 25.5576 109.236 25.9298 109.274 26.5173L109.293 26.7915H107.802C106.674 26.7915 106.216 26.8111 105.91 26.8503C104.4 27.0461 103.387 27.8295 102.832 29.1809C102.507 29.9643 102.393 30.7477 102.431 31.962C102.45 33.0588 102.546 33.6464 102.832 34.3318C103.329 35.5265 104.151 36.2316 105.336 36.4862C105.604 36.545 106.541 36.545 106.904 36.4862C107.821 36.3295 108.624 35.9574 109.197 35.3699C109.331 35.2328 109.427 35.174 109.427 35.2132C109.427 35.2328 109.484 35.4874 109.522 35.742L109.599 36.2316L111.644 36.2512H113.689L113.67 31.2961C113.651 26.439 113.651 26.3215 113.594 25.871C113.364 24.4413 112.925 23.4816 112.16 22.7374C111.032 21.6014 109.465 21.1118 107.458 21.2685ZM109.293 31.0807V31.8837L108.987 32.1971C108.528 32.6671 108.184 32.8042 107.63 32.765C106.98 32.7259 106.693 32.3341 106.693 31.5507C106.693 30.9632 106.846 30.6106 107.19 30.4344C107.439 30.2973 107.649 30.2777 108.509 30.2777H109.274L109.293 31.0807Z" fill="#2F3695"></path><path d="M123.075 21.2684C122.406 21.3468 121.852 21.5034 121.144 21.856C120.705 22.0714 120.246 22.3456 120.093 22.4827C120.055 22.5219 120.017 22.5415 119.997 22.5219C119.997 22.5023 119.959 22.2869 119.94 22.0127L119.902 21.5426H117.627H115.353V28.8871V36.2316H117.685H120.017V31.629V27.0461L120.246 26.9286C120.571 26.7719 121.183 26.576 121.852 26.4193C122.444 26.2822 123.113 26.1843 123.342 26.1843H123.476V23.697C123.476 21.3663 123.476 21.2292 123.419 21.2292C123.381 21.2292 123.228 21.2488 123.075 21.2684Z" fill="#2F3695"></path><path d="M105.776 38.954C94.1159 39.1498 84.1381 39.6982 73.4912 40.6971L72.459 40.795V41.1867C72.459 41.4021 72.5163 43.4586 72.5546 45.7501C72.5928 48.0415 72.6501 49.9413 72.6501 49.9609C72.6501 50.0196 72.6884 50.0196 73.0133 49.9609C74.9821 49.5888 80.3342 48.7858 84.3483 48.2374C101.819 45.848 121.068 44.242 139.494 43.6348C145.611 43.439 150.16 43.3607 156.506 43.3607C166.236 43.3607 174.914 43.5957 183.745 44.1049C185.255 44.1832 185.847 44.2224 185.79 44.2028C185.752 44.1832 182.158 43.6544 180.514 43.439C167.803 41.7155 153.161 40.3641 139.093 39.6199C133.205 39.3065 128.561 39.1498 121.603 38.9931C119.5 38.9344 108.089 38.9148 105.776 38.954Z" fill="#B22335"></path><path d="M185.943 44.242C185.962 44.2616 186 44.242 186 44.242C186.019 44.2224 186 44.2224 185.962 44.2224C185.924 44.2224 185.904 44.242 185.943 44.242Z" fill="#283445"></path></g><defs><clipPath id="clip0_687_3450"><rect width="57" height="56" fill="white"></rect></clipPath><clipPath id="clip1_687_3450"><rect width="114" height="34" fill="white" transform="translate(72 16)"></rect></clipPath></defs></svg>