<svg width="230" height="160" viewBox="0 0 230 160" fill="none" xmlns="http://www.w3.org/2000/svg">
<path d="M217.005 132.297L223.467 132.291L223.467 125.83L223.467 13L223.467 6.52772L216.995 6.53314L13.7988 6.70322L7.33734 6.70863L7.33734 13.1701L7.33734 126L7.33734 132.472L13.8096 132.467L217.005 132.297Z" stroke="url(#paint0_linear_386_91)" stroke-width="12.9337"/>
<path d="M217.005 132.297L223.467 132.291L223.467 125.83L223.467 13L223.467 6.52772L216.995 6.53314L13.7988 6.70322L7.33734 6.70863L7.33734 13.1701L7.33734 126L7.33734 132.472L13.8096 132.467L217.005 132.297Z" stroke="#FCD53F" stroke-width="12.9337"/>
<path d="M206.902 21.0565L206.902 159.538L22.6794 159.383L22.6794 20.9022L206.902 21.0565Z" fill="#3068BB"/>
<path d="M159.334 84.1259C161.058 82.8589 162.668 81.1996 163.715 79.3222C164.172 79.4951 164.594 79.7976 165.006 80.0937C165.19 80.2252 165.371 80.3553 165.553 80.4723C166.806 81.2783 168.057 82.0932 169.298 82.9188C169.439 83.0123 169.58 83.1055 169.721 83.1987C170.004 83.3867 170.288 83.5747 170.57 83.7651C170.593 83.7804 170.618 83.7961 170.643 83.8124C170.79 83.9067 170.967 84.0204 170.994 84.1948C171.029 84.4165 170.833 84.6783 170.679 84.8846C170.638 84.939 170.6 84.9895 170.57 85.0345C170.064 85.7925 169.523 86.5201 168.939 87.2206C166.539 90.1007 163.435 92.5506 159.97 94.0308C152.182 97.3566 142.752 95.9201 136.669 89.9413C134.76 88.0662 133.302 85.7937 132.256 83.3419C131.288 81.0741 130.803 78.6655 130.635 76.2193C130.496 74.2051 130.688 72.1879 131.18 70.225C131.578 68.635 132.165 67.0765 132.963 65.6411C133.72 64.2801 134.623 62.9882 135.671 61.833C141.71 55.1703 151.587 52.9095 160.04 55.7211C161.719 56.2795 163.365 56.9764 164.846 57.9543C164.681 58.5272 164.376 59.0845 164.08 59.6281C163.96 59.8481 163.841 60.0659 163.733 60.2815C163.394 60.9573 163.036 61.6284 162.677 62.3007C161.991 63.5846 161.303 64.8727 160.747 66.2053C160.443 66.1265 160.177 65.9383 159.917 65.7537C159.84 65.6992 159.764 65.645 159.687 65.5941C159.211 65.2778 158.715 64.9972 158.203 64.7418C156.215 63.7491 153.743 62.9708 151.489 63.1849C149.714 63.3534 148.02 63.8211 146.471 64.7252C145.315 65.4004 144.316 66.2963 143.476 67.3336C139.001 72.8597 141.052 81.7748 147.178 85.1852C148.276 85.7962 149.474 86.2069 150.712 86.4142C152.005 86.6303 153.388 86.5647 154.669 86.3035C156.353 85.9605 157.958 85.1366 159.334 84.1259Z" fill="#FCD53F"/>
<path d="M52.9021 95.7537V55.4861H84.4923V63.596H63.2202V71.4944H82.4429V79.6043H63.2202V87.6437H85.1284V95.7537H52.9021Z" fill="#FCD53F"/>
<path fill-rule="evenodd" clip-rule="evenodd" d="M91.7009 95.7537V55.4861H107.107C112.081 55.4861 117.333 55.5725 121.524 58.6514C124.041 60.5005 125.64 63.2283 126.216 66.2758C126.434 67.4272 126.471 68.5637 126.471 69.7314C126.471 72.3465 125.999 74.9627 124.726 77.2771C123.825 78.9148 122.561 80.3387 121.03 81.4171C120.989 81.4459 120.948 81.475 120.906 81.5044C120.403 81.86 119.847 82.2537 119.263 82.4252C119.563 83.0664 119.971 83.6691 120.375 84.2664C120.565 84.546 120.753 84.8244 120.929 85.105C121.887 86.6324 122.86 88.1511 123.832 89.6698C124.408 90.5689 124.983 91.4679 125.556 92.3687C125.773 92.709 126.004 93.0484 126.237 93.3899C126.759 94.1566 127.288 94.9335 127.673 95.7537H116.931C116.864 95.7537 116.788 95.7585 116.707 95.7635C116.452 95.7794 116.153 95.7981 115.969 95.681C115.796 95.5708 115.692 95.3375 115.599 95.127C115.564 95.048 115.531 94.9723 115.495 94.9074C115.411 94.7522 115.326 94.5971 115.242 94.442C114.969 93.942 114.695 93.4415 114.439 92.9328C113.531 91.1255 112.563 89.3408 111.598 87.5614C111.498 87.3772 111.399 87.1931 111.299 87.009C111.009 86.4736 110.721 85.9306 110.446 85.3871C110.416 85.3268 110.386 85.2613 110.356 85.1939C110.255 84.9715 110.145 84.7283 109.967 84.5833C109.814 84.4581 109.602 84.4635 109.407 84.4684C109.37 84.4694 109.333 84.4703 109.298 84.4703H102.019V95.7537H91.7009ZM102.019 76.3604V63.596H108.431C110.328 63.5959 112.249 63.5959 113.962 64.5348C117.649 66.5553 117.683 73.1153 114.104 75.2708C112.319 76.3458 110.255 76.3604 108.238 76.3604H102.019Z" fill="#FCD53F"/>
<path d="M169.157 71.0625C169.728 70.7325 170.341 70.4988 170.994 70.397C171.737 70.2813 172.607 70.3254 173.327 70.538C173.913 70.7113 174.467 71 174.952 71.37C177.766 73.5162 177.457 77.8889 174.528 79.7667C174.003 80.1031 173.378 80.3344 172.761 80.4297C171.93 80.558 171.096 80.5379 170.288 80.2851C168.999 79.8822 167.883 78.9834 167.275 77.7708C166.116 75.4585 166.869 72.3852 169.157 71.0625Z" fill="#FCD53F"/>
<path d="M79.4554 116.609H72.9985V110.405H69.9389V125.387H72.9985V119.31H79.4554V125.387H82.515V110.405H79.4554V116.609Z" fill="#FCD53F"/>
<path d="M95.0162 110.405H85.373V125.387H95.0162V122.623H88.4327V119.183H93.8556V116.482H88.4327V113.17H95.0162V110.405Z" fill="#FCD53F"/>
<path d="M106.507 125.387V122.623H100.24V110.405H97.1805V125.387H106.507Z" fill="#FCD53F"/>
<path d="M108.617 110.405V125.387H111.677V120.66H114.504C117.859 120.66 120.223 118.635 120.223 115.448C120.223 112.199 117.859 110.405 114.673 110.405H108.617ZM111.677 117.854V113.191H114.673C116.108 113.191 117.163 114.035 117.163 115.533C117.163 117.031 116.108 117.854 114.673 117.854H111.677Z" fill="#FCD53F"/>
<path d="M131.963 110.405H122.32V125.387H131.963V122.623H125.38V119.183H130.803V116.482H125.38V113.17H131.963V110.405Z" fill="#FCD53F"/>
<path d="M145.839 125.387C143.032 122.095 141.724 120.534 140.922 119.69C142.906 119.626 145.564 118.36 145.564 115.026C145.564 112.093 143.539 110.405 140.268 110.405H134.128V125.387H137.187C137.187 121.884 137.187 119.943 137.019 119.014L142.104 125.387H145.839ZM142.505 115.301C142.505 116.63 141.64 117.495 140.057 117.495H137.187V113.17H140.057C141.64 113.17 142.505 114.014 142.505 115.301Z" fill="#FCD53F"/>
<path d="M152.64 125.598C155.636 125.598 157.936 123.973 157.936 121.251C157.936 116.271 150.678 117.305 150.678 114.288C150.678 113.359 151.437 112.79 152.471 112.79C153.632 112.79 154.412 113.592 154.476 115.026L157.556 114.942C157.493 112.114 155.489 110.194 152.429 110.194C149.517 110.194 147.534 111.925 147.534 114.414C147.534 119.31 154.708 118.761 154.708 121.441C154.708 122.348 153.948 123.003 152.661 123.003C151.268 123.003 150.192 122.159 150.15 120.597H147.006C147.048 123.15 148.968 125.598 152.64 125.598Z" fill="#FCD53F"/>
<defs>
<linearGradient id="paint0_linear_386_91" x1="217" y1="69.5001" x2="8.74993" y2="76.1932" gradientUnits="userSpaceOnUse">
<stop stop-color="#3068BB"/>
<stop offset="1" stop-color="#77A8EF"/>
</linearGradient>
</defs>
</svg>
